Coordinates
version=1
nRows=12
nColumns=24
inDegrees=yes

Units are S.I. units (second, meters, Newtons, ...)
Angles are in degrees.

endheader
time	pelvis_tilt	pelvis_list	pelvis_rotation	pelvis_tx	pelvis_ty	pelvis_tz	hip_flexion_r	hip_adduction_r	hip_rotation_r	knee_angle_r	ankle_angle_r	subtalar_angle_r	mtp_angle_r	hip_flexion_l	hip_adduction_l	hip_rotation_l	knee_angle_l	ankle_angle_l	subtalar_angle_l	mtp_angle_l	lumbar_extension	lumbar_bending	lumbar_rotation
      6.10500000	     -1.83658533	      8.59584204	     -5.27083881	      1.79147745	      1.01309509	     -0.30046351	      6.11404726	    -13.08037457	     -5.07819134	    -60.42371578	    -15.28623515	     -1.56403152	      0.00000000	     19.58173409	     10.37560686	     -7.23977492	    -18.45012161	      8.12741735	     -9.38059562	      0.00000000	    -10.11284093	    -11.60747923	      3.21626882
      6.11000000	     -1.81616159	      8.80238487	     -5.29377897	      1.79775609	      1.01370729	     -0.30093398	      7.00349862	    -13.31343715	     -4.94621829	    -61.52197901	    -14.98415230	     -2.09935535	      0.00000000	     19.09595811	     10.65887955	     -7.31743693	    -18.24048841	      8.45816506	     -9.22662018	      0.00000000	    -10.15104459	    -11.79026940	      2.96443739
      6.11500000	     -1.82300691	      8.97295430	     -5.33244442	      1.80403705	      1.01432069	     -0.30138994	      7.91654312	    -13.48463895	     -4.77261856	    -62.54980746	    -14.39067569	     -2.42985870	      0.00000000	     18.61409978	     10.90707983	     -7.34193881	    -17.99347905	      8.78334597	     -9.10900804	      0.00000000	    -10.13865749	    -11.92344173	      2.78328205
      6.12000000	     -1.77778229	      9.09432129	     -5.30162109	      1.81032918	      1.01508327	     -0.30187818	      8.71984849	    -13.60124315	     -4.69887755	    -63.46402766	    -13.60984687	     -2.69597596	      0.00000000	     18.05107001	     11.13343359	     -7.28471285	    -17.72377102	      9.08989749	     -8.98001723	      0.00000000	    -10.19993397	    -11.99676042	      2.49561874
      6.12500000	     -1.74803080	      9.18904207	     -5.28309362	      1.81656074	      1.01585935	     -0.30235461	      9.53571972	    -13.66945906	     -4.58161111	    -64.31590922	    -12.53826035	     -2.71145092	      0.00000000	     17.49184613	     11.33330191	     -7.19683323	    -17.42628919	      9.34079296	     -8.91099975	      0.00000000	    -10.24268202	    -12.03428138	      2.24672350
      6.13000000	     -1.72090682	      9.24689994	     -5.24967452	      1.82272518	      1.01666653	     -0.30286947	     10.33919560	    -13.69559553	     -4.49388391	    -65.09030291	    -11.29598695	     -2.61064574	      0.00000000	     16.92697685	     11.50753223	     -7.06216765	    -17.11316010	      9.53504561	     -8.93387230	      0.00000000	    -10.29286812	    -12.01797486	      2.01645448
      6.13500000	     -1.68712396	      9.26952820	     -5.18882067	      1.82897920	      1.01755400	     -0.30335482	     11.09214816	    -13.67378548	     -4.44316522	    -65.75782555	     -9.95152413	     -2.42918275	      0.00000000	     16.31240160	     11.65386851	     -6.84021308	    -16.75002852	      9.72881498	     -8.92030948	      0.00000000	    -10.32794521	    -11.96519673	      1.74068307
      6.14000000	     -1.64657042	      9.26896917	     -5.10658992	      1.83517301	      1.01846259	     -0.30390762	     11.81926193	    -13.63392791	     -4.42950043	    -66.35199544	     -8.48348276	     -2.14046260	      0.00000000	     15.68533644	     11.79015274	     -6.58200565	    -16.37393838	      9.87020416	     -9.00003853	      0.00000000	    -10.38329004	    -11.87330571	      1.46858715
      6.14500000	     -1.58264542	      9.28696326	     -5.00934951	      1.84140845	      1.01941639	     -0.30454193	     12.50122977	    -13.63499425	     -4.46728145	    -66.86684268	     -6.94181523	     -1.80501976	      0.00000000	     15.00539061	     11.96817408	     -6.22563332	    -15.93948191	      9.87977953	     -9.25086746	      0.00000000	    -10.45028984	    -11.79579370	      1.19374463
      6.15000000	     -1.51284527	      9.24578457	     -4.88715944	      1.84762604	      1.02041381	     -0.30515807	     13.14302423	    -13.56344440	     -4.53325760	    -67.29003499	     -5.40019336	     -1.42858582	      0.00000000	     14.30293542	     12.08367534	     -5.82467232	    -15.50032914	      9.94431798	     -9.43761395	      0.00000000	    -10.53008253	    -11.64763971	      0.88202356
      6.15500000	     -1.45372337	      9.16513973	     -4.73396204	      1.85382032	      1.02143683	     -0.30577639	     13.76183765	    -13.44887918	     -4.64468681	    -67.62318076	     -3.84405840	     -1.02464638	      0.00000000	     13.61109462	     12.15331410	     -5.44044160	    -15.07247572	      9.98536678	     -9.59357818	      0.00000000	    -10.60216831	    -11.45520983	      0.57884632
      6.16000000	     -1.36909798	      9.09266628	     -4.57758285	      1.86002558	      1.02247358	     -0.30644712	     14.34477920	    -13.35329492	     -4.77417428	    -67.88872173	     -2.34653237	     -0.63409735	      0.00000000	     12.85981968	     12.24506284	     -4.92155280	    -14.58430925	      9.97265506	     -9.86986348	      0.00000000	    -10.69818643	    -11.26701224	      0.25074249
